<svg version="1.1" id="Layer_1" xmlns="http://www.w3.org/2000/svg" xmlns:xlink="http://www.w3.org/1999/xlink" x="0px" y="0px"
	 width="100%" viewBox="0 0 192 336" enable-background="new 0 0 192 336" xml:space="preserve">
<path fill="#000000" opacity="1.000000" stroke="none" 
	d="
M155.510178,288.578125 
	C150.776749,286.291595 147.586166,282.531006 143.597382,279.791138 
	C131.466202,271.458405 117.572388,266.421143 105.193886,258.555298 
	C99.314095,254.819016 94.760254,250.601410 92.541130,243.818069 
	C91.101593,239.417709 89.391205,235.000183 86.641434,231.177750 
	C84.656990,228.419189 83.034569,227.895203 79.997223,230.899460 
	C73.540146,237.286148 72.608780,245.146469 72.373734,253.360580 
	C71.983185,267.009125 73.662880,280.861572 71.056847,294.254486 
	C69.056892,304.532532 70.400330,313.917175 73.069405,323.571106 
	C74.046600,327.105591 72.748276,329.058380 68.623779,329.449921 
	C53.970074,330.841003 39.349026,330.170868 24.727625,329.218719 
	C22.326385,329.062347 19.318880,328.729858 18.931850,325.563538 
	C18.568657,322.592316 21.327316,321.808868 23.453243,321.020081 
	C28.131630,319.284241 32.879116,317.730713 37.620758,316.170746 
	C40.727783,315.148499 42.443878,313.254028 43.248775,309.911804 
	C44.814953,303.408417 45.623848,296.915009 45.885647,290.207336 
	C46.617790,271.448700 44.598915,252.167755 49.984627,234.131149 
	C54.878841,217.740570 59.669109,201.758255 58.965462,184.468353 
	C58.843628,181.474731 59.957108,178.273819 60.224220,175.119690 
	C60.811790,168.181534 64.008987,162.798721 70.005424,159.166397 
	C72.365562,157.736740 73.717918,156.356079 72.155258,153.163803 
	C70.504547,149.791656 71.001106,145.934464 72.263313,142.431015 
	C76.538391,130.564835 77.565819,118.121849 78.522614,105.738098 
	C79.078468,98.543541 79.852264,91.532845 82.414627,84.764694 
	C83.855148,80.959747 84.613235,77.054764 83.157875,73.058937 
	C82.518272,71.302856 82.894188,69.727348 83.949524,68.351044 
	C86.014275,65.658310 85.344688,63.693214 82.895706,61.553226 
	C71.602341,51.684757 69.370041,39.983501 74.428596,25.365372 
	C77.057213,17.769270 81.467110,13.288300 89.023224,11.313357 
	C97.261993,9.159986 104.474915,13.421065 106.395599,21.814621 
	C107.950996,28.611856 107.804024,35.277260 105.396339,41.940006 
	C102.262383,50.612556 104.945770,59.685295 111.797386,65.702896 
	C117.250641,70.492355 121.639175,76.213997 124.123322,83.059097 
	C128.670715,95.589462 134.868118,107.240570 141.372528,118.847488 
	C148.527634,131.615524 154.375595,145.204300 158.342209,159.244217 
	C160.736725,167.719620 163.161118,176.378128 164.419800,185.217087 
	C164.913147,188.681549 165.971512,192.013840 167.578995,195.162140 
	C170.328613,200.547318 170.819443,206.336288 170.138885,212.207611 
	C169.667145,216.277588 167.215424,217.490494 163.889374,215.171997 
	C156.588821,210.082993 151.367493,204.043671 150.384338,194.243195 
	C149.113022,181.570053 146.530090,168.959045 141.969177,156.935425 
	C139.907440,151.500244 139.291565,145.532501 136.022919,140.556381 
	C133.754257,137.102585 131.535950,132.143692 127.044937,132.965729 
	C122.228340,133.847366 122.595680,139.288116 122.279778,143.389206 
	C122.070938,146.100296 121.159004,148.545532 120.146240,151.032227 
	C117.866539,156.629700 119.262947,160.524445 124.376495,163.373367 
	C127.391266,165.052994 128.120895,167.973282 128.257141,170.989243 
	C128.784744,182.669342 127.745247,194.275696 126.050728,205.814072 
	C125.586601,208.974442 124.408684,211.706528 120.370499,212.404984 
	C111.713280,213.902390 109.295227,218.353516 111.806862,227.190414 
	C113.251335,232.272659 116.590584,235.933914 120.841347,238.765488 
	C127.764557,243.377243 135.105591,247.371674 141.251953,253.107269 
	C142.851334,254.599747 145.043747,255.152832 147.149796,255.699188 
	C149.970963,256.431061 152.363846,257.882874 154.334412,260.009766 
	C159.558487,265.648285 165.890305,269.875824 173.210022,271.733124 
	C180.961578,273.700073 183.788071,278.658203 184.113144,285.772308 
	C184.547989,295.288757 183.828003,304.735840 181.226883,313.951843 
	C180.782104,315.527740 180.051483,317.101532 179.118256,318.443573 
	C177.506668,320.761108 175.253281,322.577484 172.354874,321.107025 
	C169.514862,319.666229 170.071426,316.950226 171.086487,314.518799 
	C171.828476,312.741547 172.217331,310.869263 171.529327,309.160553 
	C168.208710,300.913544 164.699341,292.752075 155.510178,288.578125 
z"/>
</svg>